# xmcd
#
# Track frame offsets:
#	150
#	15732
#	33749
#	45616
#	60226
#	75281
#	91841
#	108512
#	123232
#	144503
#	158945
#	174202
#	190799
#	203570
#	220686
#	235872
#	251762
#	268582
#	287371
#	304321
#	320142
#
# Disc length: 4528 seconds
#
# Revision: 0
# Processed by: cddbd v1.5.2PL0 Copyright (c) Steve Scherf et al.
# Submitted via: audiograbber 1.83.01
#
DISCID=1811ae15
DTITLE=Various Artist - So Country 2013 - CD 1
DYEAR=2013
DGENRE=Country
TTITLE0=Lee Kernaghan - Beautiful Noise
TTITLE1=Carrie Underwood - Blown Away
TTITLE2=Kasey Chambers and shane Nicholson - The Quiet Life
TTITLE3=The Band Perry - Better Dig Two
TTITLE4=Miranda Lambert - Fastest Girl In Town
TTITLE5=Kip Moore - Beer Money (Album version)
TTITLE6=The Wolfe Brothers - It's On
TTITLE7=Jake Owen - The One That Got Away
TTITLE8=Billy Ray Cyrus - Change My Mind
TTITLE9=Dean Brody - It's Friday
TTITLE10=Adam Brand - There Will Be Love
TTITLE11=Chris Young - Tomorrow
TTITLE12=Craig Campbell - Fish
TTITLE13=O'Shea - Thank You Angels
TTITLE14=Love And Theft - Runnin' Out Of Air
TTITLE15=Florida Georgia Line - Cruise
TTITLE16=Baylou - Target On My Heart
TTITLE17=Kenny Chesney - Come Over
TTITLE18=David Nail - Let It Rain (Album version)
TTITLE19=Wade Brown - Saturday Night
TTITLE20=Kix Brooks - Moonshine Road
EXTD=
EXTT0=
EXTT1=
EXTT2=
EXTT3=
EXTT4=
EXTT5=
EXTT6=
EXTT7=
EXTT8=
EXTT9=
EXTT10=
EXTT11=
EXTT12=
EXTT13=
EXTT14=
EXTT15=
EXTT16=
EXTT17=
EXTT18=
EXTT19=
EXTT20=
PLAYORDER=
